<?xml version="1.0" encoding="UTF-8" standalone="no"?>
<svg xmlns="http://www.w3.org/2000/svg" height="24" width="24" version="1.1">
  <path fill="white" d="m 14.49875,6.71 0,0 c -0.39,0.39 -0.39,1.02 0,1.41 l 3.88,3.88 -3.88,3.88 c -0.39,0.39 -0.39,1.02 0,1.41 l 0,0 c 0.39,0.39 1.02,0.39 1.41,0 l 4.59,-4.59 c 0.39,-0.39 0.39,-1.02 0,-1.41 l -4.59,-4.59 c -0.38,-0.38 -1.02,-0.38 -1.41,0.01 z m -0.29,4.29 0,0 c -0.55,0 -1,0.45 -1,1 l 0,0 c 0,0.55 0.45,1 1,1 l 0,0 c 0.55,0 1,-0.45 1,-1 l 0,0 c 0,-0.55 -0.45,-1 -1,-1 z m -11,-1 0,4 c 0,0.55 0.45,1 1,1 l 3,0 3.29,3.29 c 0.63,0.63 1.71,0.18 1.71,-0.71 l 0,-11.17 c 0,-0.89 -1.08,-1.34 -1.71,-0.71 l -3.29,3.3 -3,0 c -0.55,0 -1,0.45 -1,1 z" />
</svg>
